<?xml version="1.0" standalone="no"?>
<!DOCTYPE svg PUBLIC "-//W3C//DTD SVG 20010904//EN"
 "http://www.w3.org/TR/2001/REC-SVG-20010904/DTD/svg10.dtd">
<svg version="1.0" xmlns="http://www.w3.org/2000/svg"
 width="320.000000pt" height="320.000000pt" viewBox="0 0 320.000000 320.000000"
 preserveAspectRatio="xMidYMid meet">

<g transform="translate(0.000000,320.000000) scale(0.100000,-0.100000)"
fill="#000000" stroke="none">
<path d="M735 3144 c-359 -78 -599 -437 -598 -894 0 -139 17 -232 65 -368 140
-402 515 -891 979 -1279 245 -205 405 -380 465 -508 33 -69 32 -26 -2 73 -48
145 -174 349 -395 642 -69 91 -183 241 -253 334 -327 433 -420 615 -493 966
-24 117 -24 360 0 448 29 106 66 172 136 243 100 100 223 149 372 149 203 0
371 -132 502 -395 24 -49 50 -108 58 -130 l13 -40 9 45 c11 59 1 220 -17 290
-57 210 -213 353 -446 410 -114 28 -301 35 -395 14z"/>
<path d="M2095 3083 c-108 -23 -191 -67 -266 -142 -108 -108 -166 -260 -175
-461 l-5 -105 24 65 c90 248 209 388 372 435 108 32 267 3 407 -72 129 -69
239 -213 273 -354 21 -91 19 -241 -5 -360 -48 -237 -130 -395 -500 -969 -232
-360 -338 -536 -405 -675 -51 -105 -99 -225 -91 -225 2 0 35 42 72 92 237 319
387 502 632 773 474 523 632 797 632 1101 0 313 -153 631 -378 786 -161 111
-388 154 -587 111z"/>
<path d="M961 2875 c-69 -20 -149 -59 -183 -92 -54 -51 -60 -137 -16 -230 23
-48 101 -124 205 -200 l71 -51 -19 56 c-56 176 -72 244 -63 260 16 26 75 52
117 52 77 0 199 -89 266 -194 l29 -47 12 37 c15 44 7 135 -16 193 -20 51 -125
148 -203 190 -71 37 -130 45 -200 26z"/>
<path d="M2015 2811 c-79 -40 -141 -93 -167 -145 -25 -49 -36 -166 -19 -210
l12 -29 26 39 c37 57 122 142 168 169 60 36 113 41 168 17 25 -11 48 -29 52
-40 5 -19 -7 -67 -64 -254 -9 -32 -12 -54 -7 -51 50 29 199 148 219 175 33 43
57 117 57 173 0 37 -6 52 -35 84 -55 61 -141 94 -255 99 -90 3 -98 2 -155 -27z"/>
<path d="M633 2690 c-60 -106 -86 -181 -91 -263 -8 -135 33 -355 107 -572 l31
-90 -5 75 c-3 41 -8 156 -11 255 -7 191 1 250 45 351 l19 42 -32 128 -32 128
-31 -54z"/>
<path d="M2517 2694 c-3 -11 -15 -62 -27 -114 l-21 -96 25 -56 c48 -109 58
-192 51 -418 -3 -113 -8 -218 -11 -235 l-5 -30 15 26 c20 35 83 242 108 359
14 63 22 133 22 210 1 114 1 116 -36 185 -20 39 -55 96 -76 129 -32 46 -41 54
-45 40z"/>
<path d="M2390 2417 c-25 -23 -76 -70 -113 -104 l-68 -63 47 -227 c25 -126 45
-255 45 -288 0 -67 -49 -268 -105 -434 -20 -58 -34 -106 -33 -108 11 -10 249
331 299 429 32 61 33 66 31 173 -2 100 -34 484 -51 612 l-7 52 -45 -42z"/>
<path d="M776 2418 c-12 -69 -47 -459 -53 -584 -6 -132 -6 -132 24 -197 17
-35 59 -107 94 -158 60 -90 207 -289 213 -289 1 0 -8 30 -20 68 -46 135 -102
340 -115 413 -12 73 -11 79 38 327 l50 252 -108 100 c-59 55 -110 100 -113
100 -3 0 -8 -15 -10 -32z"/>
<path d="M1094 2067 c27 -8 45 -22 62 -49 36 -57 73 -72 160 -65 84 8 83 9 85
-108 2 -87 11 -138 21 -113 4 10 3 67 -2 128 -6 61 -11 135 -11 165 l-2 55
-176 -1 c-145 -1 -169 -3 -137 -12z"/>
<path d="M1775 2023 c0 -27 -4 -105 -9 -175 -5 -84 -5 -128 2 -128 5 0 13 52
17 120 6 106 9 120 23 116 100 -29 169 -13 213 47 17 23 45 47 62 54 27 10 4
12 -138 12 l-170 1 0 -47z"/>
<path d="M996 1796 c-20 -105 -24 -189 -11 -244 15 -64 82 -228 142 -346 l39
-78 13 70 c14 77 34 105 87 119 l31 8 -139 240 c-76 132 -142 246 -147 254 -6
9 -10 2 -15 -23z"/>
<path d="M2078 1582 c-75 -130 -138 -243 -140 -251 -2 -9 7 -17 22 -20 14 -3
33 -11 43 -17 20 -12 46 -75 47 -114 1 -62 18 -49 65 52 126 272 145 343 126
480 -6 51 -15 96 -19 100 -4 4 -69 -100 -144 -230z"/>
<path d="M1420 1612 c0 -24 7 -30 51 -47 50 -20 91 -57 112 -102 16 -36 41
-27 76 28 18 27 51 62 72 76 21 14 39 28 39 32 -1 21 -26 26 -125 26 -60 0
-136 3 -167 8 l-58 7 0 -28z"/>
<path d="M1540 1285 l-54 -55 -76 0 c-77 0 -117 -11 -85 -24 9 -3 61 -6 115
-6 91 0 101 2 128 25 l30 25 44 -22 c36 -19 61 -23 158 -26 105 -2 113 -1 96
13 -14 10 -43 15 -97 15 -77 0 -78 0 -107 36 -27 33 -78 74 -92 74 -3 0 -30
-25 -60 -55z"/>
<path d="M1236 1117 l-49 -43 63 -109 c87 -152 119 -196 250 -339 l115 -125
70 63 c122 110 194 202 277 357 l77 144 -42 43 c-22 23 -45 42 -49 42 -4 0
-12 -18 -18 -39 -16 -62 -104 -122 -277 -190 l-50 -20 -119 59 c-132 65 -174
101 -189 161 l-10 40 -49 -44z"/>
</g>
</svg>
